<mxfile host="app.diagrams.net" modified="2023-05-08T22:14:15.771Z" agent="Mozilla/5.0 (Macintosh; Intel Mac OS X 10_15_7) AppleWebKit/537.36 (KHTML, like Gecko) Chrome/112.0.0.0 Safari/537.36" etag="ZDRk2C_9FRL5f0QMsUlm" version="21.2.9" type="device">
  <diagram name="Page-1" id="hRfMOgwbebsRVLU3YwbO">
    <mxGraphModel dx="2410" dy="2132" grid="0" gridSize="10" guides="1" tooltips="1" connect="1" arrows="1" fold="1" page="0" pageScale="1" pageWidth="827" pageHeight="1169" math="0" shadow="0">
      <root>
        <mxCell id="0" />
        <mxCell id="1" parent="0" />
        <mxCell id="1Wt6u7xdX2sf2nEKcRSj-14" style="edgeStyle=none;curved=1;rounded=0;orthogonalLoop=1;jettySize=auto;html=1;entryX=0.5;entryY=0;entryDx=0;entryDy=0;fontSize=12;startSize=8;endSize=8;" edge="1" parent="1" source="1Wt6u7xdX2sf2nEKcRSj-10" target="1Wt6u7xdX2sf2nEKcRSj-13">
          <mxGeometry relative="1" as="geometry" />
        </mxCell>
        <mxCell id="1Wt6u7xdX2sf2nEKcRSj-10" value="&lt;font style=&quot;font-size: 16px;&quot;&gt;&lt;b&gt;G1&lt;/b&gt;&lt;br&gt;The space station control system is accetably safe to operate&lt;/font&gt;" style="rounded=0;whiteSpace=wrap;html=1;fontSize=16;align=left;spacingLeft=3;" vertex="1" parent="1">
          <mxGeometry x="-306" y="-492" width="193" height="99" as="geometry" />
        </mxCell>
        <mxCell id="1Wt6u7xdX2sf2nEKcRSj-16" style="edgeStyle=none;curved=1;rounded=0;orthogonalLoop=1;jettySize=auto;html=1;entryX=0.5;entryY=0;entryDx=0;entryDy=0;fontSize=12;startSize=8;endSize=8;" edge="1" parent="1" source="1Wt6u7xdX2sf2nEKcRSj-13" target="1Wt6u7xdX2sf2nEKcRSj-15">
          <mxGeometry relative="1" as="geometry" />
        </mxCell>
        <mxCell id="1Wt6u7xdX2sf2nEKcRSj-28" style="edgeStyle=none;curved=1;rounded=0;orthogonalLoop=1;jettySize=auto;html=1;entryX=0;entryY=0.5;entryDx=0;entryDy=0;fontSize=12;startSize=8;endSize=8;exitX=1;exitY=0.5;exitDx=0;exitDy=0;" edge="1" parent="1" source="1Wt6u7xdX2sf2nEKcRSj-13" target="1Wt6u7xdX2sf2nEKcRSj-25">
          <mxGeometry relative="1" as="geometry" />
        </mxCell>
        <mxCell id="1Wt6u7xdX2sf2nEKcRSj-30" style="edgeStyle=none;curved=1;rounded=0;orthogonalLoop=1;jettySize=auto;html=1;entryX=1;entryY=0.5;entryDx=0;entryDy=0;fontSize=12;startSize=8;endSize=8;" edge="1" parent="1" source="1Wt6u7xdX2sf2nEKcRSj-13" target="1Wt6u7xdX2sf2nEKcRSj-29">
          <mxGeometry relative="1" as="geometry" />
        </mxCell>
        <mxCell id="1Wt6u7xdX2sf2nEKcRSj-13" value="&lt;b&gt;G2&lt;/b&gt;&lt;br&gt;Potential hazards have been identified and mitigated." style="rounded=0;whiteSpace=wrap;html=1;fontSize=16;align=left;spacingLeft=3;" vertex="1" parent="1">
          <mxGeometry x="-306" y="-331" width="194" height="112" as="geometry" />
        </mxCell>
        <mxCell id="1Wt6u7xdX2sf2nEKcRSj-27" style="edgeStyle=none;curved=1;rounded=0;orthogonalLoop=1;jettySize=auto;html=1;entryX=1;entryY=0.5;entryDx=0;entryDy=0;fontSize=12;startSize=8;endSize=8;" edge="1" parent="1" source="1Wt6u7xdX2sf2nEKcRSj-15" target="1Wt6u7xdX2sf2nEKcRSj-26">
          <mxGeometry relative="1" as="geometry" />
        </mxCell>
        <mxCell id="1Wt6u7xdX2sf2nEKcRSj-15" value="&lt;b&gt;S1&lt;/b&gt;&lt;br&gt;Argument over each identified hazard." style="shape=parallelogram;perimeter=parallelogramPerimeter;whiteSpace=wrap;html=1;fixedSize=1;fontSize=16;align=left;spacingLeft=15;" vertex="1" parent="1">
          <mxGeometry x="-333.5" y="-157" width="249" height="94" as="geometry" />
        </mxCell>
        <mxCell id="1Wt6u7xdX2sf2nEKcRSj-21" value="&lt;b&gt;G3&lt;/b&gt;&lt;br&gt;Airlock doors will not be open simultaneously." style="rounded=0;whiteSpace=wrap;html=1;fontSize=16;align=left;spacingLeft=3;" vertex="1" parent="1">
          <mxGeometry x="-857" y="68" width="154" height="86" as="geometry" />
        </mxCell>
        <mxCell id="1Wt6u7xdX2sf2nEKcRSj-23" style="edgeStyle=none;curved=1;rounded=0;orthogonalLoop=1;jettySize=auto;html=1;exitX=0.5;exitY=0;exitDx=0;exitDy=0;fontSize=12;startSize=8;endSize=8;" edge="1" parent="1">
          <mxGeometry relative="1" as="geometry">
            <mxPoint x="-203.99999999999977" y="68" as="sourcePoint" />
            <mxPoint x="-203.99999999999977" y="68" as="targetPoint" />
            <Array as="points">
              <mxPoint x="-176" y="80" />
            </Array>
          </mxGeometry>
        </mxCell>
        <mxCell id="1Wt6u7xdX2sf2nEKcRSj-25" value="&lt;b&gt;C4&lt;/b&gt;&lt;br&gt;Hazards identified during Hazard and Risk Analysis&amp;nbsp;" style="rounded=1;whiteSpace=wrap;html=1;fontSize=16;arcSize=50;align=left;spacingLeft=15;" vertex="1" parent="1">
          <mxGeometry x="-44" y="-366" width="229" height="92" as="geometry" />
        </mxCell>
        <mxCell id="1Wt6u7xdX2sf2nEKcRSj-26" value="&lt;b&gt;A1&lt;/b&gt;&lt;br&gt;All hazards have been identified." style="ellipse;whiteSpace=wrap;html=1;fontSize=16;align=left;spacingLeft=15;" vertex="1" parent="1">
          <mxGeometry x="-656" y="-165" width="208" height="109" as="geometry" />
        </mxCell>
        <mxCell id="1Wt6u7xdX2sf2nEKcRSj-29" value="&lt;b&gt;C3&lt;/b&gt;&lt;br&gt;Appropriate mitigations have been identified and listed." style="rounded=1;whiteSpace=wrap;html=1;fontSize=16;arcSize=50;align=left;spacingLeft=15;" vertex="1" parent="1">
          <mxGeometry x="-670" y="-321" width="263" height="92" as="geometry" />
        </mxCell>
        <mxCell id="1Wt6u7xdX2sf2nEKcRSj-31" value="&lt;b&gt;G4&lt;/b&gt;&lt;br&gt;Airlock doors will not be open simultaneously." style="rounded=0;whiteSpace=wrap;html=1;fontSize=16;align=left;spacingLeft=3;" vertex="1" parent="1">
          <mxGeometry x="-687" y="68" width="154" height="86" as="geometry" />
        </mxCell>
        <mxCell id="1Wt6u7xdX2sf2nEKcRSj-33" value="&lt;b&gt;G6&lt;/b&gt;&lt;br&gt;Two crew must members monitor space walks from opposite ends of the station." style="rounded=0;whiteSpace=wrap;html=1;fontSize=16;align=left;spacingLeft=3;" vertex="1" parent="1">
          <mxGeometry x="-343" y="59" width="185" height="104" as="geometry" />
        </mxCell>
        <mxCell id="1Wt6u7xdX2sf2nEKcRSj-34" value="&lt;b&gt;G5&lt;/b&gt;&lt;br&gt;Modules should be added on a First In Last Out basis." style="rounded=0;whiteSpace=wrap;html=1;fontSize=16;align=left;spacingLeft=3;" vertex="1" parent="1">
          <mxGeometry x="-513" y="68" width="154" height="86" as="geometry" />
        </mxCell>
        <mxCell id="1Wt6u7xdX2sf2nEKcRSj-36" value="" style="endArrow=classic;html=1;rounded=0;fontSize=12;startSize=8;endSize=8;curved=1;exitX=0.5;exitY=1;exitDx=0;exitDy=0;entryX=0.5;entryY=0;entryDx=0;entryDy=0;" edge="1" parent="1" source="1Wt6u7xdX2sf2nEKcRSj-15" target="1Wt6u7xdX2sf2nEKcRSj-21">
          <mxGeometry width="50" height="50" relative="1" as="geometry">
            <mxPoint x="-179" y="-20" as="sourcePoint" />
            <mxPoint x="-129" y="-70" as="targetPoint" />
          </mxGeometry>
        </mxCell>
        <mxCell id="1Wt6u7xdX2sf2nEKcRSj-37" value="" style="endArrow=classic;html=1;rounded=0;fontSize=12;startSize=8;endSize=8;curved=1;exitX=0.5;exitY=1;exitDx=0;exitDy=0;entryX=0.5;entryY=0;entryDx=0;entryDy=0;" edge="1" parent="1" source="1Wt6u7xdX2sf2nEKcRSj-15" target="1Wt6u7xdX2sf2nEKcRSj-31">
          <mxGeometry width="50" height="50" relative="1" as="geometry">
            <mxPoint x="-179" y="-20" as="sourcePoint" />
            <mxPoint x="-129" y="-70" as="targetPoint" />
          </mxGeometry>
        </mxCell>
        <mxCell id="1Wt6u7xdX2sf2nEKcRSj-43" value="" style="endArrow=classic;html=1;rounded=0;fontSize=12;startSize=8;endSize=8;curved=1;exitX=0.5;exitY=1;exitDx=0;exitDy=0;entryX=0.5;entryY=0;entryDx=0;entryDy=0;" edge="1" parent="1" source="1Wt6u7xdX2sf2nEKcRSj-15" target="1Wt6u7xdX2sf2nEKcRSj-34">
          <mxGeometry width="50" height="50" relative="1" as="geometry">
            <mxPoint x="-21" y="-68" as="sourcePoint" />
            <mxPoint x="29" y="-118" as="targetPoint" />
          </mxGeometry>
        </mxCell>
        <mxCell id="1Wt6u7xdX2sf2nEKcRSj-45" value="" style="endArrow=classic;html=1;rounded=0;fontSize=12;startSize=8;endSize=8;curved=1;exitX=0.5;exitY=1;exitDx=0;exitDy=0;entryX=0.5;entryY=0;entryDx=0;entryDy=0;" edge="1" parent="1" source="1Wt6u7xdX2sf2nEKcRSj-15" target="1Wt6u7xdX2sf2nEKcRSj-33">
          <mxGeometry width="50" height="50" relative="1" as="geometry">
            <mxPoint x="-189" y="-43" as="sourcePoint" />
            <mxPoint x="-272" y="36" as="targetPoint" />
          </mxGeometry>
        </mxCell>
        <mxCell id="1Wt6u7xdX2sf2nEKcRSj-46" value="" style="endArrow=classic;html=1;rounded=0;fontSize=12;startSize=8;endSize=8;curved=1;exitX=0.5;exitY=1;exitDx=0;exitDy=0;entryX=0.5;entryY=0;entryDx=0;entryDy=0;" edge="1" parent="1" source="1Wt6u7xdX2sf2nEKcRSj-21" target="1Wt6u7xdX2sf2nEKcRSj-47">
          <mxGeometry width="50" height="50" relative="1" as="geometry">
            <mxPoint x="-530" y="207" as="sourcePoint" />
            <mxPoint x="-475" y="411" as="targetPoint" />
          </mxGeometry>
        </mxCell>
        <mxCell id="1Wt6u7xdX2sf2nEKcRSj-47" value="&lt;b&gt;Sn1&lt;/b&gt;&lt;br&gt;Formal Verification&amp;nbsp;" style="ellipse;whiteSpace=wrap;html=1;aspect=fixed;fontSize=16;align=left;spacingLeft=15;" vertex="1" parent="1">
          <mxGeometry x="-499" y="213" width="111" height="111" as="geometry" />
        </mxCell>
        <mxCell id="1Wt6u7xdX2sf2nEKcRSj-48" value="" style="endArrow=classic;html=1;rounded=0;fontSize=12;startSize=8;endSize=8;curved=1;exitX=0.5;exitY=1;exitDx=0;exitDy=0;entryX=0.5;entryY=0;entryDx=0;entryDy=0;" edge="1" parent="1" source="1Wt6u7xdX2sf2nEKcRSj-31" target="1Wt6u7xdX2sf2nEKcRSj-47">
          <mxGeometry width="50" height="50" relative="1" as="geometry">
            <mxPoint x="-323" y="19" as="sourcePoint" />
            <mxPoint x="-406" y="98" as="targetPoint" />
          </mxGeometry>
        </mxCell>
        <mxCell id="1Wt6u7xdX2sf2nEKcRSj-49" value="" style="endArrow=classic;html=1;rounded=0;fontSize=12;startSize=8;endSize=8;curved=1;exitX=0.5;exitY=1;exitDx=0;exitDy=0;entryX=0.5;entryY=0;entryDx=0;entryDy=0;" edge="1" parent="1" source="1Wt6u7xdX2sf2nEKcRSj-34" target="1Wt6u7xdX2sf2nEKcRSj-47">
          <mxGeometry width="50" height="50" relative="1" as="geometry">
            <mxPoint x="-600" y="164" as="sourcePoint" />
            <mxPoint x="-431" y="370" as="targetPoint" />
          </mxGeometry>
        </mxCell>
        <mxCell id="1Wt6u7xdX2sf2nEKcRSj-50" value="" style="endArrow=classic;html=1;rounded=0;fontSize=12;startSize=8;endSize=8;curved=1;exitX=0.5;exitY=1;exitDx=0;exitDy=0;entryX=0.5;entryY=0;entryDx=0;entryDy=0;" edge="1" parent="1" source="1Wt6u7xdX2sf2nEKcRSj-33" target="1Wt6u7xdX2sf2nEKcRSj-47">
          <mxGeometry width="50" height="50" relative="1" as="geometry">
            <mxPoint x="-590" y="174" as="sourcePoint" />
            <mxPoint x="-421" y="380" as="targetPoint" />
          </mxGeometry>
        </mxCell>
        <mxCell id="1Wt6u7xdX2sf2nEKcRSj-52" value="&lt;b&gt;G9&lt;/b&gt;&lt;br&gt;Sensor data will always be available." style="rounded=0;whiteSpace=wrap;html=1;fontSize=16;align=left;spacingLeft=3;" vertex="1" parent="1">
          <mxGeometry x="213" y="70" width="154" height="86" as="geometry" />
        </mxCell>
        <mxCell id="1Wt6u7xdX2sf2nEKcRSj-53" value="&lt;b&gt;G8&lt;/b&gt;&lt;br&gt;Sensors will provide accurate height data." style="rounded=0;whiteSpace=wrap;html=1;fontSize=16;align=left;spacingLeft=3;" vertex="1" parent="1">
          <mxGeometry x="38" y="70" width="154" height="86" as="geometry" />
        </mxCell>
        <mxCell id="1Wt6u7xdX2sf2nEKcRSj-54" value="&lt;b&gt;G7&lt;/b&gt;&lt;br&gt;Airlock doors will properly seal." style="rounded=0;whiteSpace=wrap;html=1;fontSize=16;align=left;spacingLeft=3;" vertex="1" parent="1">
          <mxGeometry x="-137" y="71" width="154" height="86" as="geometry" />
        </mxCell>
        <mxCell id="1Wt6u7xdX2sf2nEKcRSj-55" value="" style="endArrow=classic;html=1;rounded=0;fontSize=12;startSize=8;endSize=8;curved=1;exitX=0.5;exitY=1;exitDx=0;exitDy=0;entryX=0.5;entryY=0;entryDx=0;entryDy=0;" edge="1" parent="1" source="1Wt6u7xdX2sf2nEKcRSj-15" target="1Wt6u7xdX2sf2nEKcRSj-54">
          <mxGeometry width="50" height="50" relative="1" as="geometry">
            <mxPoint x="-199" y="-53" as="sourcePoint" />
            <mxPoint x="-244" y="71" as="targetPoint" />
          </mxGeometry>
        </mxCell>
        <mxCell id="1Wt6u7xdX2sf2nEKcRSj-56" value="" style="endArrow=classic;html=1;rounded=0;fontSize=12;startSize=8;endSize=8;curved=1;exitX=0.5;exitY=1;exitDx=0;exitDy=0;entryX=0.5;entryY=0;entryDx=0;entryDy=0;" edge="1" parent="1" source="1Wt6u7xdX2sf2nEKcRSj-15" target="1Wt6u7xdX2sf2nEKcRSj-52">
          <mxGeometry width="50" height="50" relative="1" as="geometry">
            <mxPoint x="-189" y="-43" as="sourcePoint" />
            <mxPoint x="-234" y="81" as="targetPoint" />
          </mxGeometry>
        </mxCell>
        <mxCell id="1Wt6u7xdX2sf2nEKcRSj-57" value="" style="endArrow=classic;html=1;rounded=0;fontSize=12;startSize=8;endSize=8;curved=1;exitX=0.5;exitY=1;exitDx=0;exitDy=0;entryX=0.5;entryY=0;entryDx=0;entryDy=0;" edge="1" parent="1" source="1Wt6u7xdX2sf2nEKcRSj-15" target="1Wt6u7xdX2sf2nEKcRSj-53">
          <mxGeometry width="50" height="50" relative="1" as="geometry">
            <mxPoint x="-179" y="-33" as="sourcePoint" />
            <mxPoint x="-224" y="91" as="targetPoint" />
          </mxGeometry>
        </mxCell>
        <mxCell id="1Wt6u7xdX2sf2nEKcRSj-58" value="&lt;b&gt;Sn2&lt;/b&gt;&lt;br&gt;Fault Tree Analysis" style="ellipse;whiteSpace=wrap;html=1;aspect=fixed;fontSize=16;align=left;spacingLeft=15;" vertex="1" parent="1">
          <mxGeometry x="57.5" y="216" width="111" height="111" as="geometry" />
        </mxCell>
        <mxCell id="1Wt6u7xdX2sf2nEKcRSj-59" value="" style="endArrow=classic;html=1;rounded=0;fontSize=12;startSize=8;endSize=8;curved=1;exitX=0.5;exitY=1;exitDx=0;exitDy=0;entryX=0.5;entryY=0;entryDx=0;entryDy=0;" edge="1" parent="1" source="1Wt6u7xdX2sf2nEKcRSj-54" target="1Wt6u7xdX2sf2nEKcRSj-58">
          <mxGeometry width="50" height="50" relative="1" as="geometry">
            <mxPoint x="-264" y="176" as="sourcePoint" />
            <mxPoint x="-455" y="270" as="targetPoint" />
          </mxGeometry>
        </mxCell>
        <mxCell id="1Wt6u7xdX2sf2nEKcRSj-60" value="" style="endArrow=classic;html=1;rounded=0;fontSize=12;startSize=8;endSize=8;curved=1;exitX=0.5;exitY=1;exitDx=0;exitDy=0;entryX=0.5;entryY=0;entryDx=0;entryDy=0;" edge="1" parent="1" source="1Wt6u7xdX2sf2nEKcRSj-53" target="1Wt6u7xdX2sf2nEKcRSj-58">
          <mxGeometry width="50" height="50" relative="1" as="geometry">
            <mxPoint x="-50" y="167" as="sourcePoint" />
            <mxPoint x="165" y="245" as="targetPoint" />
          </mxGeometry>
        </mxCell>
        <mxCell id="1Wt6u7xdX2sf2nEKcRSj-61" value="" style="endArrow=classic;html=1;rounded=0;fontSize=12;startSize=8;endSize=8;curved=1;exitX=0.5;exitY=1;exitDx=0;exitDy=0;entryX=0.5;entryY=0;entryDx=0;entryDy=0;" edge="1" parent="1" source="1Wt6u7xdX2sf2nEKcRSj-52" target="1Wt6u7xdX2sf2nEKcRSj-58">
          <mxGeometry width="50" height="50" relative="1" as="geometry">
            <mxPoint x="125" y="166" as="sourcePoint" />
            <mxPoint x="125" y="270" as="targetPoint" />
          </mxGeometry>
        </mxCell>
        <mxCell id="1Wt6u7xdX2sf2nEKcRSj-62" value="&lt;b&gt;C2&lt;/b&gt;&lt;br&gt;Definition of control system&amp;nbsp;" style="rounded=1;whiteSpace=wrap;html=1;fontSize=16;arcSize=50;align=left;spacingLeft=15;" vertex="1" parent="1">
          <mxGeometry x="-38.5" y="-488.5" width="229" height="92" as="geometry" />
        </mxCell>
        <mxCell id="1Wt6u7xdX2sf2nEKcRSj-63" style="edgeStyle=none;curved=1;rounded=0;orthogonalLoop=1;jettySize=auto;html=1;entryX=0;entryY=0.5;entryDx=0;entryDy=0;fontSize=12;startSize=8;endSize=8;exitX=1;exitY=0.5;exitDx=0;exitDy=0;" edge="1" parent="1" source="1Wt6u7xdX2sf2nEKcRSj-10" target="1Wt6u7xdX2sf2nEKcRSj-62">
          <mxGeometry relative="1" as="geometry">
            <mxPoint x="-102" y="-265" as="sourcePoint" />
            <mxPoint x="-37" y="-265" as="targetPoint" />
          </mxGeometry>
        </mxCell>
        <mxCell id="1Wt6u7xdX2sf2nEKcRSj-64" value="&lt;b&gt;C1&lt;/b&gt;&lt;br&gt;Operatiing context" style="rounded=1;whiteSpace=wrap;html=1;fontSize=16;arcSize=50;align=left;spacingLeft=15;" vertex="1" parent="1">
          <mxGeometry x="-636" y="-488.5" width="229" height="92" as="geometry" />
        </mxCell>
        <mxCell id="1Wt6u7xdX2sf2nEKcRSj-65" style="edgeStyle=none;curved=1;rounded=0;orthogonalLoop=1;jettySize=auto;html=1;entryX=1;entryY=0.5;entryDx=0;entryDy=0;fontSize=12;startSize=8;endSize=8;exitX=0;exitY=0.5;exitDx=0;exitDy=0;" edge="1" parent="1" source="1Wt6u7xdX2sf2nEKcRSj-10" target="1Wt6u7xdX2sf2nEKcRSj-64">
          <mxGeometry relative="1" as="geometry">
            <mxPoint x="-103" y="-432" as="sourcePoint" />
            <mxPoint x="-28" y="-432" as="targetPoint" />
          </mxGeometry>
        </mxCell>
        <mxCell id="1Wt6u7xdX2sf2nEKcRSj-66" value="&lt;b&gt;C5&lt;/b&gt;&lt;br&gt;SIL 4 guidlines" style="rounded=1;whiteSpace=wrap;html=1;fontSize=16;arcSize=50;align=left;spacingLeft=15;" vertex="1" parent="1">
          <mxGeometry x="-44" y="-257" width="229" height="92" as="geometry" />
        </mxCell>
        <mxCell id="1Wt6u7xdX2sf2nEKcRSj-67" style="edgeStyle=none;curved=1;rounded=0;orthogonalLoop=1;jettySize=auto;html=1;entryX=0;entryY=0.5;entryDx=0;entryDy=0;fontSize=12;startSize=8;endSize=8;exitX=1;exitY=0.5;exitDx=0;exitDy=0;" edge="1" parent="1" source="1Wt6u7xdX2sf2nEKcRSj-13" target="1Wt6u7xdX2sf2nEKcRSj-66">
          <mxGeometry relative="1" as="geometry">
            <mxPoint x="-82" y="-244" as="sourcePoint" />
            <mxPoint x="-34" y="-318" as="targetPoint" />
          </mxGeometry>
        </mxCell>
        <mxCell id="1Wt6u7xdX2sf2nEKcRSj-68" value="&lt;b&gt;J1&lt;/b&gt;&lt;br&gt;Correct SIL appointment" style="ellipse;whiteSpace=wrap;html=1;fontSize=16;align=left;spacingLeft=15;" vertex="1" parent="1">
          <mxGeometry x="-34.5" y="-136" width="210" height="96" as="geometry" />
        </mxCell>
        <mxCell id="1Wt6u7xdX2sf2nEKcRSj-69" style="edgeStyle=none;curved=1;rounded=0;orthogonalLoop=1;jettySize=auto;html=1;entryX=0.5;entryY=0;entryDx=0;entryDy=0;fontSize=12;startSize=8;endSize=8;exitX=0.5;exitY=1;exitDx=0;exitDy=0;" edge="1" parent="1" source="1Wt6u7xdX2sf2nEKcRSj-66" target="1Wt6u7xdX2sf2nEKcRSj-68">
          <mxGeometry relative="1" as="geometry">
            <mxPoint x="-102" y="-265" as="sourcePoint" />
            <mxPoint x="-34" y="-201" as="targetPoint" />
          </mxGeometry>
        </mxCell>
      </root>
    </mxGraphModel>
  </diagram>
</mxfile>
